HIERARCHY
ROOT joint_Root
{
	OFFSET 0.0 0.0 0.0
	CHANNELS 6 Xposition Yposition Zposition Zrotation Xrotation Yrotation 
	JOINT Hips
	{
		OFFSET -17.1583 93.1646 452.98
		CHANNELS 6 Xposition Yposition Zposition Zrotation Xrotation Yrotation 
		JOINT Spine
		{
			OFFSET 15.7357 0.0 0.0
			CHANNELS 6 Xposition Yposition Zposition Zrotation Xrotation Yrotation 
			JOINT Chest
			{
				OFFSET 8.98455 -0.406207 0.0
				CHANNELS 6 Xposition Yposition Zposition Zrotation Xrotation Yrotation 
				JOINT Neck
				{
					OFFSET 16.3773 0.0 0.0
					CHANNELS 6 Xposition Yposition Zposition Zrotation Xrotation Yrotation 
					JOINT Head
					{
						OFFSET 6.45672 0.0 0.0
						CHANNELS 6 Xposition Yposition Zposition Zrotation Xrotation Yrotation 
						End Site
						{
							OFFSET 0.0 0.0 0.0
						}
					}
				}
				JOINT Shoulder_L
				{
					OFFSET 12.9942 -0.242716 4.98039
					CHANNELS 6 Xposition Yposition Zposition Zrotation Xrotation Yrotation 
					JOINT UpperArm_L
					{
						OFFSET 5.34809 0.0 0.0
						CHANNELS 6 Xposition Yposition Zposition Zrotation Xrotation Yrotation 
						JOINT LowerArm_L
						{
							OFFSET 24.3286 1.87007e-05 0.0
							CHANNELS 6 Xposition Yposition Zposition Zrotation Xrotation Yrotation 
							JOINT Hand_L
							{
								OFFSET 22.2916 0.0 0.0
								CHANNELS 6 Xposition Yposition Zposition Zrotation Xrotation Yrotation 
								End Site
								{
									OFFSET 0.0 0.0 0.0
								}
							}
						}
					}
				}
				JOINT Shoulder_R
				{
					OFFSET 12.9945 -0.242716 -4.98039
					CHANNELS 6 Xposition Yposition Zposition Zrotation Xrotation Yrotation 
					JOINT UpperArm_R
					{
						OFFSET -5.34813 0.0 0.0
						CHANNELS 6 Xposition Yposition Zposition Zrotation Xrotation Yrotation 
						JOINT LowerArm_R
						{
							OFFSET -24.3289 0.000322201 0.0
							CHANNELS 6 Xposition Yposition Zposition Zrotation Xrotation Yrotation 
							JOINT Hand_R
							{
								OFFSET -22.2915 -0.000108084 0.0
								CHANNELS 6 Xposition Yposition Zposition Zrotation Xrotation Yrotation 
								End Site
								{
									OFFSET 0.0 0.0 0.0
								}
							}
						}
					}
				}
			}
		}
		JOINT UpperLeg_L
		{
			OFFSET -2.19248 -6.46944 0.0
			CHANNELS 6 Xposition Yposition Zposition Zrotation Xrotation Yrotation 
			JOINT LowerLeg_L
			{
				OFFSET 39.0811 0.0 -1.23785e-05
				CHANNELS 6 Xposition Yposition Zposition Zrotation Xrotation Yrotation 
				JOINT Foot_L
				{
					OFFSET 40.9854 0.0 -1.26872e-05
					CHANNELS 6 Xposition Yposition Zposition Zrotation Xrotation Yrotation 
					JOINT Toes_L
					{
						OFFSET 11.7543 0.0 0.0
						CHANNELS 6 Xposition Yposition Zposition Zrotation Xrotation Yrotation 
						End Site
						{
							OFFSET 0.0 0.0 0.0
						}
					}
				}
			}
		}
		JOINT UpperLeg_R
		{
			OFFSET -2.19251 6.46944 0.0
			CHANNELS 6 Xposition Yposition Zposition Zrotation Xrotation Yrotation 
			JOINT LowerLeg_R
			{
				OFFSET -39.0811 -0.00228153 -0.0401928
				CHANNELS 6 Xposition Yposition Zposition Zrotation Xrotation Yrotation 
				JOINT Foot_R
				{
					OFFSET -40.9854 0.0 0.0
					CHANNELS 6 Xposition Yposition Zposition Zrotation Xrotation Yrotation 
					JOINT Toes_R
					{
						OFFSET -11.7543 0.0 0.0
						CHANNELS 6 Xposition Yposition Zposition Zrotation Xrotation Yrotation 
						End Site
						{
							OFFSET 0.0 0.0 0.0
						}
					}
				}
			}
		}
	}
}
MOTION
Frames:	6
Frame Time:	0.0333333
0.000000 0.000000 0.000000 0.000000 0.000000 -0.000000 189.488000 90.849600 -69.754700 89.527600 0.902493 -3.092640 15.735700 0.000005 -0.000001 51.935400 87.377400 -51.127200 8.984550 -0.406207 -0.000000 -3.615450 -3.312340 1.512660 16.377300 -0.000001 -0.000001 3.495790 2.212830 -3.163980 6.456720 -0.000001 -0.000000 8.432660 2.944140 0.993398 12.994200 -0.242716 4.980390 -92.727200 7.870870 -70.820100 5.348090 -0.000007 -0.000001 -67.159300 -9.495300 -7.967950 24.328600 0.000019 0.000005 37.885000 18.352400 -67.967900 22.291600 -0.000001 0.000005 55.264700 4.405570 18.134300 12.994500 -0.242716 -4.980390 89.330100 2.052800 -71.923400 -5.348130 -0.000001 -0.000004 -61.885900 -3.008050 15.910700 -24.328900 0.000322 -0.000009 0.392089 8.720880 -2.591040 -22.291500 -0.000108 -0.000004 35.136800 5.321890 -0.550194 -2.192480 -6.469440 -0.000000 -179.781000 -9.641490 9.006390 39.081100 -0.000007 -0.000012 -0.003546 0.014182 14.037000 40.985400 -0.000006 -0.000013 0.209364 20.992200 -71.877100 11.754300 -0.000000 0.000003 0.002478 0.078809 -13.380600 -2.192510 6.469440 -0.000001 -179.353000 -9.749610 153.000000 -39.081100 -0.002282 -0.040193 0.006095 -0.021698 7.226310 -40.985400 0.000008 0.000006 -3.633850 -6.789850 -62.112600 -11.754300 -0.000006 -0.000006 -0.002792 0.205894 -8.219000
0.000000 0.000000 0.000000 0.000000 0.000000 -0.000000 189.231000 90.379800 -65.606200 88.813000 1.630030 -4.074140 15.735700 0.000005 -0.000001 39.564900 87.578000 -38.488700 8.984550 -0.406207 -0.000000 -4.649120 -3.847380 1.998280 16.377300 -0.000001 -0.000001 3.746210 2.075980 -3.065620 6.456720 -0.000001 -0.000000 8.837870 3.036710 0.954937 12.994200 -0.242716 4.980390 -92.761800 8.046290 -70.984300 5.348090 -0.000007 -0.000001 -67.332300 -9.063850 -6.719210 24.328600 0.000019 0.000005 35.796600 19.302900 -65.371800 22.291600 -0.000001 0.000005 55.020400 4.421590 17.877400 12.994500 -0.242716 -4.980390 89.129300 2.598250 -71.467800 -5.348130 -0.000001 -0.000004 -61.061200 -3.531550 14.992800 -24.328900 0.000322 -0.000009 0.441928 9.079810 -2.804570 -22.291500 -0.000108 -0.000004 35.319900 5.315780 -0.374801 -2.192480 -6.469440 -0.000000 -178.299000 -9.367060 9.359260 39.081100 -0.000007 -0.000012 -0.002114 0.007241 16.270900 40.985400 -0.000006 -0.000013 -0.188118 21.848100 -71.139200 11.754300 -0.000000 0.000003 -0.000027 -0.000454 -16.595900 -2.192510 6.469440 -0.000001 -178.532000 -9.651160 152.084000 -39.081100 -0.002282 -0.040193 0.008057 -0.035160 7.636480 -40.985400 0.000008 0.000006 -4.433120 -7.552870 -60.240900 -11.754300 -0.000006 -0.000006 -0.002601 0.203676 -8.309240
0.000000 0.000000 0.000000 0.000000 0.000000 -0.000000 188.954000 90.086500 -61.042600 87.588000 2.604760 -5.535310 15.735700 0.000005 -0.000001 19.228800 87.797200 -17.609600 8.984550 -0.406207 -0.000000 -6.261500 -4.351080 3.005930 16.377300 -0.000001 -0.000001 4.094250 1.859300 -3.234090 6.456720 -0.000001 -0.000000 9.321890 2.983970 0.784255 12.994200 -0.242716 4.980390 -92.846500 8.379020 -71.159500 5.348090 -0.000007 -0.000001 -67.744800 -7.417280 -4.881220 24.328600 0.000019 0.000005 32.047300 20.922300 -60.295000 22.291600 -0.000001 0.000005 54.840600 4.434920 17.663000 12.994500 -0.242716 -4.980390 89.013100 2.865730 -70.987600 -5.348130 -0.000001 -0.000004 -60.912200 -3.813310 14.037400 -24.328900 0.000322 -0.000009 0.570398 9.121330 -3.599570 -22.291500 -0.000108 -0.000004 34.738700 5.325620 -0.659603 -2.192480 -6.469440 -0.000000 -176.074000 -9.668230 8.955700 39.081100 -0.000007 -0.000012 0.003401 -0.010010 18.765700 40.985400 -0.000006 -0.000013 -0.563436 23.258800 -68.422500 11.754300 -0.000000 0.000003 -0.014813 -0.136647 -22.151800 -2.192510 6.469440 -0.000001 -176.661000 -8.811180 148.967000 -39.081100 -0.002282 -0.040193 0.008858 -0.022381 13.869600 -40.985400 0.000008 0.000006 -4.377060 -8.244960 -55.573500 -11.754300 -0.000006 -0.000006 -0.002624 0.203944 -8.298330
0.000000 0.000000 0.000000 0.000000 0.000000 -0.000000 188.693000 89.976200 -56.095100 85.977500 3.286440 -6.456370 15.735700 0.000005 -0.000001 0.701778 87.914100 1.621500 8.984550 -0.406207 -0.000000 -7.633080 -4.472940 4.359140 16.377300 -0.000001 -0.000001 4.200500 1.627120 -3.287640 6.456720 -0.000001 -0.000000 9.906740 2.674000 0.340311 12.994200 -0.242716 4.980390 -92.950400 8.697310 -71.179200 5.348090 -0.000007 -0.000001 -68.586000 -4.631740 -2.862170 24.328600 0.000019 0.000005 28.009300 23.599200 -53.031400 22.291600 -0.000001 0.000005 54.182700 4.477260 16.971600 12.994500 -0.242716 -4.980390 88.879300 3.173600 -70.538500 -5.348130 -0.000001 -0.000004 -61.170500 -3.437510 12.808300 -24.328900 0.000322 -0.000009 0.659748 8.424950 -4.501450 -22.291500 -0.000108 -0.000004 34.300700 5.342290 -1.147560 -2.192480 -6.469440 -0.000000 -173.795000 -9.002980 8.332530 39.081100 -0.000007 -0.000012 0.015797 -0.039109 21.995400 40.985400 -0.000006 -0.000013 -1.766870 23.441400 -62.855300 11.754300 -0.000000 0.000003 -0.059107 -0.328874 -30.155400 -2.192510 6.469440 -0.000001 -174.116000 -8.638130 146.895000 -39.081100 -0.002282 -0.040193 0.004529 -0.003140 21.060600 -40.985400 0.000008 0.000006 -2.707550 -7.570630 -55.940300 -11.754300 -0.000006 -0.000006 -0.004724 0.226438 -7.382460
0.000000 0.000000 0.000000 0.000000 0.000000 -0.000000 188.615000 90.007800 -51.032400 85.010400 3.522930 -6.123140 15.735700 0.000005 -0.000001 -3.231370 87.975800 5.974300 8.984550 -0.406207 -0.000000 -7.895920 -4.405570 5.195470 16.377300 -0.000001 -0.000001 3.898850 1.460890 -3.140350 6.456720 -0.000001 -0.000000 10.093500 2.350290 -0.148325 12.994200 -0.242716 4.980390 -92.841600 8.455020 -71.346300 5.348090 -0.000007 -0.000001 -70.303400 -1.979130 -1.003550 24.328600 0.000019 0.000005 24.025900 27.611900 -43.884500 22.291600 -0.000001 0.000005 53.475600 4.556880 15.645500 12.994500 -0.242716 -4.980390 88.814200 3.321820 -70.342700 -5.348130 -0.000001 -0.000004 -62.586000 -2.099680 10.386200 -24.328900 0.000322 -0.000009 0.624654 7.571380 -4.738180 -22.291500 -0.000108 -0.000004 34.530100 5.355230 -1.534880 -2.192480 -6.469440 -0.000000 -172.666000 -7.624520 7.026650 39.081100 -0.000007 -0.000012 0.037721 -0.071825 27.707000 40.985400 -0.000006 -0.000013 -3.606610 22.128800 -54.499700 11.754300 -0.000000 0.000003 -0.109819 -0.468302 -36.173100 -2.192510 6.469440 -0.000001 -172.408000 -9.064560 147.379000 -39.081100 -0.002282 -0.040193 0.001889 0.002814 26.767200 -40.985400 0.000008 0.000006 -1.927380 -7.697090 -58.497500 -11.754300 -0.000006 -0.000006 -0.007834 0.254340 -6.244320
0.000000 0.000000 0.000000 0.000000 0.000000 -0.000000 188.616000 90.023800 -46.157600 84.602600 4.161730 -4.668210 15.735700 0.000005 -0.000001 7.009640 87.964600 -4.108770 8.984550 -0.406207 -0.000000 -7.162720 -4.409050 5.538210 16.377300 -0.000001 -0.000001 3.454010 1.126420 -3.078240 6.456720 -0.000001 -0.000000 9.873950 1.898680 -0.294216 12.994200 -0.242716 4.980390 -92.710500 8.211830 -71.661900 5.348090 -0.000007 -0.000001 -71.962400 0.251737 0.768531 24.328600 0.000019 0.000005 19.921300 31.949000 -34.409000 22.291600 -0.000001 0.000005 52.843700 4.628050 14.429000 12.994500 -0.242716 -4.980390 88.780800 3.423320 -70.383500 -5.348130 -0.000001 -0.000004 -64.783000 -0.558025 7.460220 -24.328900 0.000322 -0.000009 0.636688 6.743970 -5.416070 -22.291500 -0.000108 -0.000004 34.515300 5.363570 -1.789500 -2.192480 -6.469440 -0.000000 -171.823000 -5.984370 4.133740 39.081100 -0.000007 -0.000012 0.080694 -0.108122 36.734200 40.985400 -0.000006 -0.000013 -7.358330 20.396800 -44.485800 11.754300 -0.000000 0.000003 -0.071283 -0.366829 -31.771400 -2.192510 6.469440 -0.000001 -170.969000 -8.495320 150.082000 -39.081100 -0.002282 -0.040193 0.002049 0.002079 31.041800 -40.985400 0.000008 0.000006 -1.256290 -7.691080 -63.301100 -11.754300 -0.000006 -0.000006 -0.008481 0.259579 -6.030340
